<mxfile host="app.diagrams.net" modified="2022-12-14T04:23:43.418Z" agent="5.0 (Windows NT 10.0; WOW64) AppleWebKit/537.36 (KHTML, like Gecko) Chrome/107.0.0.0 Safari/537.36" version="20.6.0" etag="dbIMOETz8eL3ng3HgSU-" type="github">
  <diagram id="_lloRd4n5NZAt5_Do5u5" name="第 1 页">
    <mxGraphModel dx="1185" dy="635" grid="1" gridSize="10" guides="1" tooltips="1" connect="1" arrows="1" fold="1" page="1" pageScale="1" pageWidth="850" pageHeight="1100" math="0" shadow="0">
      <root>
        <mxCell id="0" />
        <mxCell id="1" parent="0" />
        <mxCell id="3KAAwCh_GaVrQStL4ofY-1" value="tw_adapter_t" style="shape=table;startSize=40;container=1;collapsible=0;childLayout=tableLayout;fillColor=#dae8fc;strokeColor=#6c8ebf;gradientColor=none;swimlaneFillColor=#66FFFF;rounded=1;sketch=1;align=left;fontStyle=3" vertex="1" parent="1">
          <mxGeometry x="155" y="100" width="270" height="291" as="geometry" />
        </mxCell>
        <mxCell id="3KAAwCh_GaVrQStL4ofY-2" value="" style="shape=tableRow;horizontal=0;startSize=0;swimlaneHead=0;swimlaneBody=0;top=0;left=0;bottom=0;right=0;collapsible=0;dropTarget=0;fillColor=none;points=[[0,0.5],[1,0.5]];portConstraint=eastwest;" vertex="1" parent="3KAAwCh_GaVrQStL4ofY-1">
          <mxGeometry y="40" width="270" height="20" as="geometry" />
        </mxCell>
        <mxCell id="3KAAwCh_GaVrQStL4ofY-3" value="evl_t* &lt;span style=&quot;white-space: pre;&quot;&gt;	&lt;/span&gt;&lt;span style=&quot;white-space: pre;&quot;&gt;	&lt;/span&gt;&lt;span style=&quot;white-space: pre;&quot;&gt;	&lt;/span&gt;&lt;span style=&quot;white-space: pre;&quot;&gt;	&lt;/span&gt;&lt;span style=&quot;white-space: pre;&quot;&gt;	&lt;/span&gt;&lt;b&gt;&lt;i&gt;evl&lt;/i&gt;&lt;/b&gt;" style="shape=partialRectangle;html=1;whiteSpace=wrap;connectable=0;overflow=hidden;fillColor=none;top=0;left=0;bottom=0;right=0;pointerEvents=1;align=left;" vertex="1" parent="3KAAwCh_GaVrQStL4ofY-2">
          <mxGeometry width="270" height="20" as="geometry">
            <mxRectangle width="270" height="20" as="alternateBounds" />
          </mxGeometry>
        </mxCell>
        <mxCell id="3KAAwCh_GaVrQStL4ofY-4" value="" style="shape=tableRow;horizontal=0;startSize=0;swimlaneHead=0;swimlaneBody=0;top=0;left=0;bottom=0;right=0;collapsible=0;dropTarget=0;fillColor=none;points=[[0,0.5],[1,0.5]];portConstraint=eastwest;" vertex="1" parent="3KAAwCh_GaVrQStL4ofY-1">
          <mxGeometry y="60" width="270" height="21" as="geometry" />
        </mxCell>
        <mxCell id="3KAAwCh_GaVrQStL4ofY-5" value="evl_defer_t &lt;span style=&quot;white-space: pre;&quot;&gt;	&lt;/span&gt;&lt;span style=&quot;white-space: pre;&quot;&gt;	&lt;/span&gt;&lt;span style=&quot;white-space: pre;&quot;&gt;	&lt;/span&gt;&lt;span style=&quot;white-space: pre;&quot;&gt;	&lt;/span&gt;&lt;b&gt;&lt;i&gt;evl_process_defer&lt;/i&gt;&lt;/b&gt;" style="shape=partialRectangle;html=1;whiteSpace=wrap;connectable=0;overflow=hidden;fillColor=none;top=0;left=0;bottom=0;right=0;pointerEvents=1;align=left;" vertex="1" parent="3KAAwCh_GaVrQStL4ofY-4">
          <mxGeometry width="270" height="21" as="geometry">
            <mxRectangle width="270" height="21" as="alternateBounds" />
          </mxGeometry>
        </mxCell>
        <mxCell id="3KAAwCh_GaVrQStL4ofY-6" value="" style="shape=tableRow;horizontal=0;startSize=0;swimlaneHead=0;swimlaneBody=0;top=0;left=0;bottom=0;right=0;collapsible=0;dropTarget=0;fillColor=none;points=[[0,0.5],[1,0.5]];portConstraint=eastwest;" vertex="1" parent="3KAAwCh_GaVrQStL4ofY-1">
          <mxGeometry y="81" width="270" height="22" as="geometry" />
        </mxCell>
        <mxCell id="3KAAwCh_GaVrQStL4ofY-7" value="evl_timer_t &lt;span style=&quot;white-space: pre;&quot;&gt;	&lt;/span&gt;&lt;span style=&quot;white-space: pre;&quot;&gt;	&lt;/span&gt;&lt;span style=&quot;white-space: pre;&quot;&gt;	&lt;/span&gt;&lt;span style=&quot;white-space: pre;&quot;&gt;	&lt;/span&gt;&lt;b&gt;&lt;i&gt;evl_process_timer&lt;/i&gt;&lt;/b&gt;" style="shape=partialRectangle;html=1;whiteSpace=wrap;connectable=0;overflow=hidden;fillColor=none;top=0;left=0;bottom=0;right=0;pointerEvents=1;align=left;" vertex="1" parent="3KAAwCh_GaVrQStL4ofY-6">
          <mxGeometry width="270" height="22" as="geometry">
            <mxRectangle width="270" height="22" as="alternateBounds" />
          </mxGeometry>
        </mxCell>
        <mxCell id="3KAAwCh_GaVrQStL4ofY-8" value="" style="shape=tableRow;horizontal=0;startSize=0;swimlaneHead=0;swimlaneBody=0;top=0;left=0;bottom=0;right=0;collapsible=0;dropTarget=0;fillColor=none;points=[[0,0.5],[1,0.5]];portConstraint=eastwest;" vertex="1" parent="3KAAwCh_GaVrQStL4ofY-1">
          <mxGeometry y="103" width="270" height="22" as="geometry" />
        </mxCell>
        <mxCell id="3KAAwCh_GaVrQStL4ofY-9" value="tw_adapter_flag_t &lt;span style=&quot;white-space: pre;&quot;&gt;	&lt;/span&gt;&lt;span style=&quot;white-space: pre;&quot;&gt;	&lt;/span&gt;&lt;span style=&quot;white-space: pre;&quot;&gt;	&lt;/span&gt;&lt;b&gt;&lt;i&gt;tw_adapter_flags&lt;/i&gt;&lt;/b&gt;" style="shape=partialRectangle;html=1;whiteSpace=wrap;connectable=0;overflow=hidden;fillColor=none;top=0;left=0;bottom=0;right=0;pointerEvents=1;align=left;" vertex="1" parent="3KAAwCh_GaVrQStL4ofY-8">
          <mxGeometry width="270" height="22" as="geometry">
            <mxRectangle width="270" height="22" as="alternateBounds" />
          </mxGeometry>
        </mxCell>
        <mxCell id="3KAAwCh_GaVrQStL4ofY-10" value="" style="shape=tableRow;horizontal=0;startSize=0;swimlaneHead=0;swimlaneBody=0;top=0;left=0;bottom=0;right=0;collapsible=0;dropTarget=0;fillColor=none;points=[[0,0.5],[1,0.5]];portConstraint=eastwest;" vertex="1" parent="3KAAwCh_GaVrQStL4ofY-1">
          <mxGeometry y="125" width="270" height="20" as="geometry" />
        </mxCell>
        <mxCell id="3KAAwCh_GaVrQStL4ofY-11" value="tw_http_message_sender_t*&amp;nbsp;&amp;nbsp;&lt;b&gt;&lt;i&gt;message_sender&lt;/i&gt;&lt;/b&gt;" style="shape=partialRectangle;html=1;whiteSpace=wrap;connectable=0;overflow=hidden;fillColor=none;top=0;left=0;bottom=0;right=0;pointerEvents=1;align=left;" vertex="1" parent="3KAAwCh_GaVrQStL4ofY-10">
          <mxGeometry width="270" height="20" as="geometry">
            <mxRectangle width="270" height="20" as="alternateBounds" />
          </mxGeometry>
        </mxCell>
        <mxCell id="3KAAwCh_GaVrQStL4ofY-12" value="" style="shape=tableRow;horizontal=0;startSize=0;swimlaneHead=0;swimlaneBody=0;top=0;left=0;bottom=0;right=0;collapsible=0;dropTarget=0;fillColor=none;points=[[0,0.5],[1,0.5]];portConstraint=eastwest;" vertex="1" parent="3KAAwCh_GaVrQStL4ofY-1">
          <mxGeometry y="145" width="270" height="21" as="geometry" />
        </mxCell>
        <mxCell id="3KAAwCh_GaVrQStL4ofY-13" value="list_t* &lt;span style=&quot;white-space: pre;&quot;&gt;	&lt;/span&gt;&lt;span style=&quot;white-space: pre;&quot;&gt;	&lt;/span&gt;&lt;span style=&quot;white-space: pre;&quot;&gt;	&lt;/span&gt;&lt;b&gt;&lt;i&gt;list_of_bind_registers&lt;/i&gt;&lt;/b&gt;" style="shape=partialRectangle;html=1;whiteSpace=wrap;connectable=0;overflow=hidden;fillColor=none;top=0;left=0;bottom=0;right=0;pointerEvents=1;align=left;" vertex="1" parent="3KAAwCh_GaVrQStL4ofY-12">
          <mxGeometry width="270" height="21" as="geometry">
            <mxRectangle width="270" height="21" as="alternateBounds" />
          </mxGeometry>
        </mxCell>
        <mxCell id="3KAAwCh_GaVrQStL4ofY-14" value="" style="shape=tableRow;horizontal=0;startSize=0;swimlaneHead=0;swimlaneBody=0;top=0;left=0;bottom=0;right=0;collapsible=0;dropTarget=0;fillColor=none;points=[[0,0.5],[1,0.5]];portConstraint=eastwest;" vertex="1" parent="3KAAwCh_GaVrQStL4ofY-1">
          <mxGeometry y="166" width="270" height="20" as="geometry" />
        </mxCell>
        <mxCell id="3KAAwCh_GaVrQStL4ofY-15" value="cb_bind_t* &lt;span style=&quot;white-space: pre;&quot;&gt;	&lt;/span&gt;&lt;span style=&quot;white-space: pre;&quot;&gt;	&lt;/span&gt;&lt;b&gt;&lt;i&gt;cb_bind&lt;/i&gt;&lt;/b&gt;" style="shape=partialRectangle;html=1;whiteSpace=wrap;connectable=0;overflow=hidden;fillColor=none;top=0;left=0;bottom=0;right=0;pointerEvents=1;align=left;" vertex="1" parent="3KAAwCh_GaVrQStL4ofY-14">
          <mxGeometry width="270" height="20" as="geometry">
            <mxRectangle width="270" height="20" as="alternateBounds" />
          </mxGeometry>
        </mxCell>
        <mxCell id="3KAAwCh_GaVrQStL4ofY-16" value="" style="shape=tableRow;horizontal=0;startSize=0;swimlaneHead=0;swimlaneBody=0;top=0;left=0;bottom=0;right=0;collapsible=0;dropTarget=0;fillColor=none;points=[[0,0.5],[1,0.5]];portConstraint=eastwest;" vertex="1" parent="3KAAwCh_GaVrQStL4ofY-1">
          <mxGeometry y="186" width="270" height="21" as="geometry" />
        </mxCell>
        <mxCell id="3KAAwCh_GaVrQStL4ofY-17" value="http_router_t*&lt;b&gt;&lt;i&gt; &lt;span style=&quot;white-space: pre;&quot;&gt;	&lt;/span&gt;&lt;span style=&quot;white-space: pre;&quot;&gt;	&lt;/span&gt;router&lt;/i&gt;&lt;/b&gt;" style="shape=partialRectangle;html=1;whiteSpace=wrap;connectable=0;overflow=hidden;fillColor=none;top=0;left=0;bottom=0;right=0;pointerEvents=1;align=left;" vertex="1" parent="3KAAwCh_GaVrQStL4ofY-16">
          <mxGeometry width="270" height="21" as="geometry">
            <mxRectangle width="270" height="21" as="alternateBounds" />
          </mxGeometry>
        </mxCell>
        <mxCell id="3KAAwCh_GaVrQStL4ofY-18" value="" style="shape=tableRow;horizontal=0;startSize=0;swimlaneHead=0;swimlaneBody=0;top=0;left=0;bottom=0;right=0;collapsible=0;dropTarget=0;fillColor=none;points=[[0,0.5],[1,0.5]];portConstraint=eastwest;" vertex="1" parent="3KAAwCh_GaVrQStL4ofY-1">
          <mxGeometry y="207" width="270" height="22" as="geometry" />
        </mxCell>
        <mxCell id="3KAAwCh_GaVrQStL4ofY-19" value="char* &lt;span style=&quot;white-space: pre;&quot;&gt;	&lt;/span&gt;&lt;span style=&quot;white-space: pre;&quot;&gt;	&lt;/span&gt;&lt;span style=&quot;white-space: pre;&quot;&gt;	&lt;/span&gt;&lt;b&gt;&lt;i&gt;timer_endpoint&lt;/i&gt;&lt;/b&gt;" style="shape=partialRectangle;html=1;whiteSpace=wrap;connectable=0;overflow=hidden;fillColor=none;top=0;left=0;bottom=0;right=0;pointerEvents=1;align=left;" vertex="1" parent="3KAAwCh_GaVrQStL4ofY-18">
          <mxGeometry width="270" height="22" as="geometry">
            <mxRectangle width="270" height="22" as="alternateBounds" />
          </mxGeometry>
        </mxCell>
        <mxCell id="3KAAwCh_GaVrQStL4ofY-20" value="" style="shape=tableRow;horizontal=0;startSize=0;swimlaneHead=0;swimlaneBody=0;top=0;left=0;bottom=0;right=0;collapsible=0;dropTarget=0;fillColor=none;points=[[0,0.5],[1,0.5]];portConstraint=eastwest;" vertex="1" parent="3KAAwCh_GaVrQStL4ofY-1">
          <mxGeometry y="229" width="270" height="22" as="geometry" />
        </mxCell>
        <mxCell id="3KAAwCh_GaVrQStL4ofY-21" value="void* &lt;span style=&quot;white-space: pre;&quot;&gt;	&lt;/span&gt;&lt;span style=&quot;white-space: pre;&quot;&gt;	&lt;/span&gt;&lt;span style=&quot;white-space: pre;&quot;&gt;	&lt;/span&gt;&lt;b&gt;&lt;i&gt;mem_stream&lt;/i&gt;&lt;/b&gt;" style="shape=partialRectangle;html=1;whiteSpace=wrap;connectable=0;overflow=hidden;fillColor=none;top=0;left=0;bottom=0;right=0;pointerEvents=1;align=left;" vertex="1" parent="3KAAwCh_GaVrQStL4ofY-20">
          <mxGeometry width="270" height="22" as="geometry">
            <mxRectangle width="270" height="22" as="alternateBounds" />
          </mxGeometry>
        </mxCell>
        <mxCell id="3KAAwCh_GaVrQStL4ofY-22" value="" style="shape=tableRow;horizontal=0;startSize=0;swimlaneHead=0;swimlaneBody=0;top=0;left=0;bottom=0;right=0;collapsible=0;dropTarget=0;fillColor=none;points=[[0,0.5],[1,0.5]];portConstraint=eastwest;" vertex="1" parent="3KAAwCh_GaVrQStL4ofY-1">
          <mxGeometry y="251" width="270" height="20" as="geometry" />
        </mxCell>
        <mxCell id="3KAAwCh_GaVrQStL4ofY-23" value="struct&amp;nbsp; &lt;span style=&quot;white-space: pre;&quot;&gt;	&lt;/span&gt;&lt;span style=&quot;white-space: pre;&quot;&gt;	&lt;/span&gt;&lt;span style=&quot;white-space: pre;&quot;&gt;	&lt;/span&gt;&lt;b&gt;&lt;i&gt;stats&lt;/i&gt;&lt;/b&gt;" style="shape=partialRectangle;html=1;whiteSpace=wrap;connectable=0;overflow=hidden;fillColor=none;top=0;left=0;bottom=0;right=0;pointerEvents=1;align=left;" vertex="1" parent="3KAAwCh_GaVrQStL4ofY-22">
          <mxGeometry width="270" height="20" as="geometry">
            <mxRectangle width="270" height="20" as="alternateBounds" />
          </mxGeometry>
        </mxCell>
        <mxCell id="3KAAwCh_GaVrQStL4ofY-24" style="shape=tableRow;horizontal=0;startSize=0;swimlaneHead=0;swimlaneBody=0;top=0;left=0;bottom=0;right=0;collapsible=0;dropTarget=0;fillColor=none;points=[[0,0.5],[1,0.5]];portConstraint=eastwest;" vertex="1" parent="3KAAwCh_GaVrQStL4ofY-1">
          <mxGeometry y="271" width="270" height="20" as="geometry" />
        </mxCell>
        <mxCell id="3KAAwCh_GaVrQStL4ofY-25" value="counters_t* &lt;span style=&quot;white-space: pre;&quot;&gt;	&lt;/span&gt;&lt;span style=&quot;white-space: pre;&quot;&gt;	&lt;/span&gt;&lt;b&gt;&lt;i&gt;metrics_counters&lt;/i&gt;&lt;/b&gt;" style="shape=partialRectangle;html=1;whiteSpace=wrap;connectable=0;overflow=hidden;fillColor=none;top=0;left=0;bottom=0;right=0;pointerEvents=1;align=left;" vertex="1" parent="3KAAwCh_GaVrQStL4ofY-24">
          <mxGeometry width="270" height="20" as="geometry">
            <mxRectangle width="270" height="20" as="alternateBounds" />
          </mxGeometry>
        </mxCell>
        <mxCell id="3KAAwCh_GaVrQStL4ofY-26" value="tw_http_message_sender_t" style="shape=table;startSize=30;container=1;collapsible=0;childLayout=tableLayout;rounded=1;sketch=1;fillColor=#fff2cc;strokeColor=#d6b656;swimlaneFillColor=#D5E8D4;align=left;fontStyle=3" vertex="1" parent="1">
          <mxGeometry x="503" y="175.5" width="200" height="140" as="geometry" />
        </mxCell>
        <mxCell id="3KAAwCh_GaVrQStL4ofY-27" value="" style="shape=tableRow;horizontal=0;startSize=0;swimlaneHead=0;swimlaneBody=0;top=0;left=0;bottom=0;right=0;collapsible=0;dropTarget=0;fillColor=none;points=[[0,0.5],[1,0.5]];portConstraint=eastwest;rounded=1;sketch=1;" vertex="1" parent="3KAAwCh_GaVrQStL4ofY-26">
          <mxGeometry y="30" width="200" height="22" as="geometry" />
        </mxCell>
        <mxCell id="3KAAwCh_GaVrQStL4ofY-28" value="evl_t* &lt;span style=&quot;white-space: pre;&quot;&gt;	&lt;/span&gt;&lt;span style=&quot;white-space: pre;&quot;&gt;	&lt;/span&gt;&amp;nbsp;&amp;nbsp;&lt;b&gt;&lt;i&gt;evl&lt;/i&gt;&lt;/b&gt;" style="shape=partialRectangle;html=1;whiteSpace=wrap;connectable=0;overflow=hidden;fillColor=none;top=0;left=0;bottom=0;right=0;pointerEvents=1;rounded=1;sketch=1;align=left;" vertex="1" parent="3KAAwCh_GaVrQStL4ofY-27">
          <mxGeometry width="200" height="22" as="geometry">
            <mxRectangle width="200" height="22" as="alternateBounds" />
          </mxGeometry>
        </mxCell>
        <mxCell id="3KAAwCh_GaVrQStL4ofY-29" value="" style="shape=tableRow;horizontal=0;startSize=0;swimlaneHead=0;swimlaneBody=0;top=0;left=0;bottom=0;right=0;collapsible=0;dropTarget=0;fillColor=none;points=[[0,0.5],[1,0.5]];portConstraint=eastwest;rounded=1;sketch=1;" vertex="1" parent="3KAAwCh_GaVrQStL4ofY-26">
          <mxGeometry y="52" width="200" height="22" as="geometry" />
        </mxCell>
        <mxCell id="3KAAwCh_GaVrQStL4ofY-30" value="tls_config_t* &lt;span style=&quot;white-space: pre;&quot;&gt;	&lt;/span&gt;&amp;nbsp;&amp;nbsp;&lt;b&gt;&lt;i&gt;tls_config&lt;/i&gt;&lt;/b&gt;" style="shape=partialRectangle;html=1;whiteSpace=wrap;connectable=0;overflow=hidden;fillColor=none;top=0;left=0;bottom=0;right=0;pointerEvents=1;rounded=1;sketch=1;align=left;" vertex="1" parent="3KAAwCh_GaVrQStL4ofY-29">
          <mxGeometry width="200" height="22" as="geometry">
            <mxRectangle width="200" height="22" as="alternateBounds" />
          </mxGeometry>
        </mxCell>
        <mxCell id="3KAAwCh_GaVrQStL4ofY-31" value="" style="shape=tableRow;horizontal=0;startSize=0;swimlaneHead=0;swimlaneBody=0;top=0;left=0;bottom=0;right=0;collapsible=0;dropTarget=0;fillColor=none;points=[[0,0.5],[1,0.5]];portConstraint=eastwest;rounded=1;sketch=1;" vertex="1" parent="3KAAwCh_GaVrQStL4ofY-26">
          <mxGeometry y="74" width="200" height="22" as="geometry" />
        </mxCell>
        <mxCell id="3KAAwCh_GaVrQStL4ofY-32" value="http_adapter_t* &lt;b&gt;&lt;i&gt;http_adapter&lt;/i&gt;&lt;/b&gt;" style="shape=partialRectangle;html=1;whiteSpace=wrap;connectable=0;overflow=hidden;fillColor=none;top=0;left=0;bottom=0;right=0;pointerEvents=1;rounded=1;sketch=1;align=left;" vertex="1" parent="3KAAwCh_GaVrQStL4ofY-31">
          <mxGeometry width="200" height="22" as="geometry">
            <mxRectangle width="200" height="22" as="alternateBounds" />
          </mxGeometry>
        </mxCell>
        <mxCell id="3KAAwCh_GaVrQStL4ofY-33" value="" style="shape=tableRow;horizontal=0;startSize=0;swimlaneHead=0;swimlaneBody=0;top=0;left=0;bottom=0;right=0;collapsible=0;dropTarget=0;fillColor=none;points=[[0,0.5],[1,0.5]];portConstraint=eastwest;rounded=1;sketch=1;" vertex="1" parent="3KAAwCh_GaVrQStL4ofY-26">
          <mxGeometry y="96" width="200" height="22" as="geometry" />
        </mxCell>
        <mxCell id="3KAAwCh_GaVrQStL4ofY-34" value="struct &lt;span style=&quot;white-space: pre;&quot;&gt;	&lt;/span&gt;&lt;span style=&quot;white-space: pre;&quot;&gt;	&lt;/span&gt;&amp;nbsp;&amp;nbsp;&lt;b&gt;&lt;i&gt;stats&lt;/i&gt;&lt;/b&gt;" style="shape=partialRectangle;html=1;whiteSpace=wrap;connectable=0;overflow=hidden;fillColor=none;top=0;left=0;bottom=0;right=0;pointerEvents=1;rounded=1;sketch=1;align=left;" vertex="1" parent="3KAAwCh_GaVrQStL4ofY-33">
          <mxGeometry width="200" height="22" as="geometry">
            <mxRectangle width="200" height="22" as="alternateBounds" />
          </mxGeometry>
        </mxCell>
        <mxCell id="3KAAwCh_GaVrQStL4ofY-35" value="" style="shape=tableRow;horizontal=0;startSize=0;swimlaneHead=0;swimlaneBody=0;top=0;left=0;bottom=0;right=0;collapsible=0;dropTarget=0;fillColor=none;points=[[0,0.5],[1,0.5]];portConstraint=eastwest;rounded=1;sketch=1;" vertex="1" parent="3KAAwCh_GaVrQStL4ofY-26">
          <mxGeometry y="118" width="200" height="22" as="geometry" />
        </mxCell>
        <mxCell id="3KAAwCh_GaVrQStL4ofY-36" value="counters_t* &lt;span style=&quot;white-space: pre;&quot;&gt;	&lt;/span&gt;&amp;nbsp; &amp;nbsp;&lt;b&gt;&lt;i&gt;metrics_counters&lt;/i&gt;&lt;/b&gt;" style="shape=partialRectangle;html=1;whiteSpace=wrap;connectable=0;overflow=hidden;fillColor=none;top=0;left=0;bottom=0;right=0;pointerEvents=1;rounded=1;sketch=1;align=left;" vertex="1" parent="3KAAwCh_GaVrQStL4ofY-35">
          <mxGeometry width="200" height="22" as="geometry">
            <mxRectangle width="200" height="22" as="alternateBounds" />
          </mxGeometry>
        </mxCell>
        <mxCell id="3KAAwCh_GaVrQStL4ofY-39" value="&lt;b&gt;&lt;i&gt;http_router&lt;/i&gt;&lt;/b&gt;" style="shape=table;startSize=30;container=1;collapsible=0;childLayout=tableLayout;rounded=1;shadow=0;dashed=0;labelBackgroundColor=none;sketch=1;fillStyle=auto;strokeColor=#BD7000;fontFamily=Helvetica;fontSize=14;fontColor=#000000;fillColor=#f0a30a;html=1;swimlaneFillColor=#CCFFCC;gradientDirection=west;align=left;swimlaneLine=1;" vertex="1" parent="1">
          <mxGeometry x="503" y="380" width="140" height="70" as="geometry" />
        </mxCell>
        <mxCell id="3KAAwCh_GaVrQStL4ofY-40" value="" style="shape=tableRow;horizontal=0;startSize=0;swimlaneHead=0;swimlaneBody=0;top=0;left=0;bottom=0;right=0;collapsible=0;dropTarget=0;fillColor=none;points=[[0,0.5],[1,0.5]];portConstraint=eastwest;rounded=1;shadow=0;dashed=0;labelBackgroundColor=none;sketch=0;fillStyle=cross-hatch;strokeColor=#ffffff;fontFamily=Helvetica;fontSize=14;fontColor=#3333FF;html=1;" vertex="1" parent="3KAAwCh_GaVrQStL4ofY-39">
          <mxGeometry y="30" width="140" height="20" as="geometry" />
        </mxCell>
        <mxCell id="3KAAwCh_GaVrQStL4ofY-41" value="&lt;font color=&quot;#000000&quot;&gt;R3Node*&amp;nbsp; &amp;nbsp;&lt;i&gt;&lt;b&gt;root&lt;/b&gt;&lt;/i&gt;&lt;/font&gt;" style="shape=partialRectangle;html=1;whiteSpace=wrap;connectable=0;overflow=hidden;fillColor=none;top=0;left=0;bottom=0;right=0;pointerEvents=1;rounded=1;shadow=0;dashed=0;labelBackgroundColor=none;sketch=0;fillStyle=cross-hatch;strokeColor=#ffffff;fontFamily=Helvetica;fontSize=14;fontColor=#3333FF;align=left;" vertex="1" parent="3KAAwCh_GaVrQStL4ofY-40">
          <mxGeometry width="140" height="20" as="geometry">
            <mxRectangle width="140" height="20" as="alternateBounds" />
          </mxGeometry>
        </mxCell>
        <mxCell id="3KAAwCh_GaVrQStL4ofY-42" value="" style="shape=tableRow;horizontal=0;startSize=0;swimlaneHead=0;swimlaneBody=0;top=0;left=0;bottom=0;right=0;collapsible=0;dropTarget=0;fillColor=none;points=[[0,0.5],[1,0.5]];portConstraint=eastwest;rounded=1;shadow=0;dashed=0;labelBackgroundColor=none;sketch=0;fillStyle=cross-hatch;strokeColor=#ffffff;fontFamily=Helvetica;fontSize=14;fontColor=#3333FF;html=1;" vertex="1" parent="3KAAwCh_GaVrQStL4ofY-39">
          <mxGeometry y="50" width="140" height="20" as="geometry" />
        </mxCell>
        <mxCell id="3KAAwCh_GaVrQStL4ofY-43" value="&lt;font color=&quot;#000000&quot;&gt;list_t*&amp;nbsp; &amp;nbsp; &amp;nbsp; &amp;nbsp; &lt;b&gt;&lt;i&gt;routes&lt;/i&gt;&lt;/b&gt;&lt;/font&gt;" style="shape=partialRectangle;html=1;whiteSpace=wrap;connectable=0;overflow=hidden;fillColor=none;top=0;left=0;bottom=0;right=0;pointerEvents=1;rounded=1;shadow=0;dashed=0;labelBackgroundColor=none;sketch=0;fillStyle=cross-hatch;strokeColor=#ffffff;fontFamily=Helvetica;fontSize=14;fontColor=#3333FF;align=left;" vertex="1" parent="3KAAwCh_GaVrQStL4ofY-42">
          <mxGeometry width="140" height="20" as="geometry">
            <mxRectangle width="140" height="20" as="alternateBounds" />
          </mxGeometry>
        </mxCell>
        <mxCell id="3KAAwCh_GaVrQStL4ofY-44" value="" style="group" vertex="1" connectable="0" parent="1">
          <mxGeometry x="526.35" y="468" width="146.5" height="130" as="geometry" />
        </mxCell>
        <mxCell id="3KAAwCh_GaVrQStL4ofY-45" value="" style="group;rounded=1;glass=0;sketch=1;shadow=0;" vertex="1" connectable="0" parent="3KAAwCh_GaVrQStL4ofY-44">
          <mxGeometry width="100" height="30" as="geometry" />
        </mxCell>
        <mxCell id="3KAAwCh_GaVrQStL4ofY-46" value="&lt;font color=&quot;#ea6b66&quot; style=&quot;font-size: 10px;&quot;&gt;*datum&lt;/font&gt;" style="shape=process;whiteSpace=wrap;html=1;backgroundOutline=1;rounded=1;shadow=0;dashed=0;labelBackgroundColor=none;sketch=1;fillStyle=auto;strokeColor=#B09500;fontFamily=Helvetica;fontSize=14;fontColor=#000000;fillColor=#e3c800;arcSize=50;size=0.3;" vertex="1" parent="3KAAwCh_GaVrQStL4ofY-45">
          <mxGeometry width="100" height="30" as="geometry" />
        </mxCell>
        <mxCell id="3KAAwCh_GaVrQStL4ofY-47" value="&lt;font color=&quot;#ea6b66&quot; style=&quot;font-size: 10px;&quot;&gt;prev&lt;/font&gt;" style="text;html=1;strokeColor=none;fillColor=none;align=center;verticalAlign=middle;whiteSpace=wrap;rounded=0;shadow=0;dashed=0;labelBackgroundColor=none;sketch=0;fillStyle=cross-hatch;fontFamily=Helvetica;fontSize=14;fontColor=#3333FF;" vertex="1" parent="3KAAwCh_GaVrQStL4ofY-45">
          <mxGeometry x="6" y="10" width="20" height="10" as="geometry" />
        </mxCell>
        <mxCell id="3KAAwCh_GaVrQStL4ofY-48" value="&lt;font color=&quot;#ea6b66&quot; style=&quot;font-size: 10px;&quot;&gt;next&lt;/font&gt;" style="text;html=1;strokeColor=none;fillColor=none;align=center;verticalAlign=middle;whiteSpace=wrap;rounded=0;shadow=0;dashed=0;labelBackgroundColor=none;sketch=0;fillStyle=cross-hatch;fontFamily=Helvetica;fontSize=14;fontColor=#3333FF;" vertex="1" parent="3KAAwCh_GaVrQStL4ofY-45">
          <mxGeometry x="75" y="10" width="20" height="10" as="geometry" />
        </mxCell>
        <mxCell id="3KAAwCh_GaVrQStL4ofY-49" value="" style="group" vertex="1" connectable="0" parent="3KAAwCh_GaVrQStL4ofY-44">
          <mxGeometry x="20" y="50" width="100" height="30" as="geometry" />
        </mxCell>
        <mxCell id="3KAAwCh_GaVrQStL4ofY-50" value="&lt;font color=&quot;#ea6b66&quot; style=&quot;font-size: 10px;&quot;&gt;*datum&lt;/font&gt;" style="shape=process;whiteSpace=wrap;html=1;backgroundOutline=1;rounded=1;shadow=0;dashed=0;labelBackgroundColor=none;sketch=1;fillStyle=auto;strokeColor=#B09500;fontFamily=Helvetica;fontSize=14;fontColor=#000000;fillColor=#e3c800;arcSize=50;size=0.3;" vertex="1" parent="3KAAwCh_GaVrQStL4ofY-49">
          <mxGeometry width="100" height="30" as="geometry" />
        </mxCell>
        <mxCell id="3KAAwCh_GaVrQStL4ofY-51" value="&lt;font color=&quot;#ea6b66&quot; style=&quot;font-size: 10px;&quot;&gt;prev&lt;/font&gt;" style="text;html=1;strokeColor=none;fillColor=none;align=center;verticalAlign=middle;whiteSpace=wrap;rounded=0;shadow=0;dashed=0;labelBackgroundColor=none;sketch=0;fillStyle=cross-hatch;fontFamily=Helvetica;fontSize=14;fontColor=#3333FF;" vertex="1" parent="3KAAwCh_GaVrQStL4ofY-49">
          <mxGeometry x="6" y="10" width="20" height="10" as="geometry" />
        </mxCell>
        <mxCell id="3KAAwCh_GaVrQStL4ofY-52" value="&lt;font color=&quot;#ea6b66&quot; style=&quot;font-size: 10px;&quot;&gt;next&lt;/font&gt;" style="text;html=1;strokeColor=none;fillColor=none;align=center;verticalAlign=middle;whiteSpace=wrap;rounded=0;shadow=0;dashed=0;labelBackgroundColor=none;sketch=0;fillStyle=cross-hatch;fontFamily=Helvetica;fontSize=14;fontColor=#3333FF;" vertex="1" parent="3KAAwCh_GaVrQStL4ofY-49">
          <mxGeometry x="75" y="10" width="20" height="10" as="geometry" />
        </mxCell>
        <mxCell id="3KAAwCh_GaVrQStL4ofY-53" value="" style="group" vertex="1" connectable="0" parent="3KAAwCh_GaVrQStL4ofY-44">
          <mxGeometry x="46.5" y="100" width="100" height="30" as="geometry" />
        </mxCell>
        <mxCell id="3KAAwCh_GaVrQStL4ofY-54" value="&lt;font color=&quot;#ea6b66&quot; style=&quot;font-size: 10px;&quot;&gt;*datum&lt;/font&gt;" style="shape=process;whiteSpace=wrap;html=1;backgroundOutline=1;rounded=1;shadow=0;dashed=0;labelBackgroundColor=none;sketch=1;fillStyle=auto;strokeColor=#B09500;fontFamily=Helvetica;fontSize=14;fontColor=#000000;fillColor=#e3c800;arcSize=50;size=0.3;" vertex="1" parent="3KAAwCh_GaVrQStL4ofY-53">
          <mxGeometry width="100" height="30" as="geometry" />
        </mxCell>
        <mxCell id="3KAAwCh_GaVrQStL4ofY-55" value="&lt;font color=&quot;#ea6b66&quot; style=&quot;font-size: 10px;&quot;&gt;prev&lt;/font&gt;" style="text;html=1;strokeColor=none;fillColor=none;align=center;verticalAlign=middle;whiteSpace=wrap;rounded=0;shadow=0;dashed=0;labelBackgroundColor=none;sketch=0;fillStyle=cross-hatch;fontFamily=Helvetica;fontSize=14;fontColor=#3333FF;" vertex="1" parent="3KAAwCh_GaVrQStL4ofY-53">
          <mxGeometry x="6" y="10" width="20" height="10" as="geometry" />
        </mxCell>
        <mxCell id="3KAAwCh_GaVrQStL4ofY-56" value="&lt;font color=&quot;#ea6b66&quot; style=&quot;font-size: 10px;&quot;&gt;next&lt;/font&gt;" style="text;html=1;strokeColor=none;fillColor=none;align=center;verticalAlign=middle;whiteSpace=wrap;rounded=0;shadow=0;dashed=0;labelBackgroundColor=none;sketch=0;fillStyle=cross-hatch;fontFamily=Helvetica;fontSize=14;fontColor=#3333FF;" vertex="1" parent="3KAAwCh_GaVrQStL4ofY-53">
          <mxGeometry x="75" y="10" width="20" height="10" as="geometry" />
        </mxCell>
        <mxCell id="3KAAwCh_GaVrQStL4ofY-57" style="edgeStyle=orthogonalEdgeStyle;orthogonalLoop=1;jettySize=auto;html=1;exitX=1;exitY=0.5;exitDx=0;exitDy=0;entryX=0;entryY=0.5;entryDx=0;entryDy=0;fontFamily=Helvetica;fontSize=10;fontColor=#EA6B66;curved=1;startArrow=classic;startFill=1;" edge="1" parent="3KAAwCh_GaVrQStL4ofY-44" source="3KAAwCh_GaVrQStL4ofY-46" target="3KAAwCh_GaVrQStL4ofY-50">
          <mxGeometry relative="1" as="geometry">
            <Array as="points">
              <mxPoint x="120" y="15" />
              <mxPoint x="120" y="40" />
              <mxPoint y="40" />
              <mxPoint y="65" />
            </Array>
          </mxGeometry>
        </mxCell>
        <mxCell id="3KAAwCh_GaVrQStL4ofY-58" style="edgeStyle=orthogonalEdgeStyle;curved=1;orthogonalLoop=1;jettySize=auto;html=1;exitX=1;exitY=0.5;exitDx=0;exitDy=0;entryX=0;entryY=0.5;entryDx=0;entryDy=0;fontFamily=Helvetica;fontSize=10;fontColor=#EA6B66;startArrow=classic;startFill=1;" edge="1" parent="3KAAwCh_GaVrQStL4ofY-44" source="3KAAwCh_GaVrQStL4ofY-50" target="3KAAwCh_GaVrQStL4ofY-54">
          <mxGeometry relative="1" as="geometry">
            <Array as="points">
              <mxPoint x="140" y="65" />
              <mxPoint x="140" y="90" />
              <mxPoint x="27" y="90" />
              <mxPoint x="27" y="115" />
            </Array>
          </mxGeometry>
        </mxCell>
        <mxCell id="3KAAwCh_GaVrQStL4ofY-59" style="edgeStyle=orthogonalEdgeStyle;curved=1;orthogonalLoop=1;jettySize=auto;html=1;exitX=0;exitY=0.5;exitDx=0;exitDy=0;entryX=0;entryY=0.5;entryDx=0;entryDy=0;fontFamily=Helvetica;fontSize=10;fontColor=#EA6B66;startArrow=classic;startFill=1;endArrow=classic;endFill=1;" edge="1" parent="1" source="3KAAwCh_GaVrQStL4ofY-42" target="3KAAwCh_GaVrQStL4ofY-46">
          <mxGeometry relative="1" as="geometry">
            <Array as="points">
              <mxPoint x="490" y="440" />
              <mxPoint x="490" y="483" />
            </Array>
          </mxGeometry>
        </mxCell>
        <mxCell id="3KAAwCh_GaVrQStL4ofY-60" value="&lt;b&gt;&lt;i&gt;http_route&lt;/i&gt;&lt;/b&gt;" style="shape=table;startSize=30;container=1;collapsible=0;childLayout=tableLayout;rounded=1;shadow=0;dashed=0;labelBackgroundColor=none;sketch=1;fillStyle=auto;strokeColor=#36393d;fontFamily=Helvetica;fontSize=16;fillColor=#ffff88;html=1;swimlaneFillColor=#FFE6CC;align=left;" vertex="1" parent="1">
          <mxGeometry x="710" y="478" width="180" height="110" as="geometry" />
        </mxCell>
        <mxCell id="3KAAwCh_GaVrQStL4ofY-61" value="" style="shape=tableRow;horizontal=0;startSize=0;swimlaneHead=0;swimlaneBody=0;top=0;left=0;bottom=0;right=0;collapsible=0;dropTarget=0;fillColor=none;points=[[0,0.5],[1,0.5]];portConstraint=eastwest;rounded=1;shadow=0;dashed=0;labelBackgroundColor=none;sketch=0;fillStyle=cross-hatch;strokeColor=#ffffff;fontFamily=Helvetica;fontSize=16;fontColor=#4C0099;html=1;" vertex="1" parent="3KAAwCh_GaVrQStL4ofY-60">
          <mxGeometry y="30" width="180" height="32" as="geometry" />
        </mxCell>
        <mxCell id="3KAAwCh_GaVrQStL4ofY-62" value="&lt;font style=&quot;font-size: 12px;&quot;&gt;http_on_request_t&amp;nbsp;&amp;nbsp;&lt;b&gt;&lt;i&gt;on_request&lt;/i&gt;&lt;/b&gt;&lt;/font&gt;" style="shape=partialRectangle;html=1;whiteSpace=wrap;connectable=0;overflow=hidden;fillColor=none;top=0;left=0;bottom=0;right=0;pointerEvents=1;rounded=1;shadow=0;dashed=0;labelBackgroundColor=none;sketch=0;fillStyle=cross-hatch;strokeColor=#ffffff;fontFamily=Helvetica;fontSize=16;fontColor=#4C0099;align=left;" vertex="1" parent="3KAAwCh_GaVrQStL4ofY-61">
          <mxGeometry width="180" height="32" as="geometry">
            <mxRectangle width="180" height="32" as="alternateBounds" />
          </mxGeometry>
        </mxCell>
        <mxCell id="3KAAwCh_GaVrQStL4ofY-63" value="" style="shape=tableRow;horizontal=0;startSize=0;swimlaneHead=0;swimlaneBody=0;top=0;left=0;bottom=0;right=0;collapsible=0;dropTarget=0;fillColor=none;points=[[0,0.5],[1,0.5]];portConstraint=eastwest;rounded=1;shadow=0;dashed=0;labelBackgroundColor=none;sketch=0;fillStyle=cross-hatch;strokeColor=#ffffff;fontFamily=Helvetica;fontSize=16;fontColor=#4C0099;html=1;" vertex="1" parent="3KAAwCh_GaVrQStL4ofY-60">
          <mxGeometry y="62" width="180" height="22" as="geometry" />
        </mxCell>
        <mxCell id="3KAAwCh_GaVrQStL4ofY-64" value="&lt;font style=&quot;font-size: 12px;&quot;&gt;char*&amp;nbsp; &amp;nbsp; &amp;nbsp; &amp;nbsp; &amp;nbsp; &amp;nbsp; &amp;nbsp;&lt;span style=&quot;white-space: pre;&quot;&gt;	&lt;/span&gt;&lt;span style=&quot;white-space: pre;&quot;&gt;	&lt;/span&gt;&lt;b&gt;&lt;i&gt;path&lt;/i&gt;&lt;/b&gt;&lt;/font&gt;" style="shape=partialRectangle;html=1;whiteSpace=wrap;connectable=0;overflow=hidden;fillColor=none;top=0;left=0;bottom=0;right=0;pointerEvents=1;rounded=1;shadow=0;dashed=0;labelBackgroundColor=none;sketch=0;fillStyle=cross-hatch;strokeColor=#ffffff;fontFamily=Helvetica;fontSize=16;fontColor=#4C0099;align=left;" vertex="1" parent="3KAAwCh_GaVrQStL4ofY-63">
          <mxGeometry width="180" height="22" as="geometry">
            <mxRectangle width="180" height="22" as="alternateBounds" />
          </mxGeometry>
        </mxCell>
        <mxCell id="3KAAwCh_GaVrQStL4ofY-65" value="" style="shape=tableRow;horizontal=0;startSize=0;swimlaneHead=0;swimlaneBody=0;top=0;left=0;bottom=0;right=0;collapsible=0;dropTarget=0;fillColor=none;points=[[0,0.5],[1,0.5]];portConstraint=eastwest;rounded=1;shadow=0;dashed=0;labelBackgroundColor=none;sketch=0;fillStyle=cross-hatch;strokeColor=#ffffff;fontFamily=Helvetica;fontSize=16;fontColor=#4C0099;html=1;" vertex="1" parent="3KAAwCh_GaVrQStL4ofY-60">
          <mxGeometry y="84" width="180" height="26" as="geometry" />
        </mxCell>
        <mxCell id="3KAAwCh_GaVrQStL4ofY-66" value="&lt;font style=&quot;font-size: 12px;&quot;&gt;void*&amp;nbsp; &amp;nbsp; &amp;nbsp; &amp;nbsp; &amp;nbsp; &amp;nbsp; &lt;b&gt;&lt;i&gt;&lt;font style=&quot;font-size: 12px;&quot;&gt;&amp;nbsp;&lt;span style=&quot;white-space: pre;&quot;&gt;	&lt;/span&gt;&lt;span style=&quot;white-space: pre;&quot;&gt;	&lt;/span&gt;data&lt;/font&gt;&lt;/i&gt;&lt;/b&gt;&lt;/font&gt;" style="shape=partialRectangle;html=1;whiteSpace=wrap;connectable=0;overflow=hidden;fillColor=none;top=0;left=0;bottom=0;right=0;pointerEvents=1;rounded=1;shadow=0;dashed=0;labelBackgroundColor=none;sketch=0;fillStyle=cross-hatch;strokeColor=#ffffff;fontFamily=Helvetica;fontSize=16;fontColor=#4C0099;align=left;" vertex="1" parent="3KAAwCh_GaVrQStL4ofY-65">
          <mxGeometry width="180" height="26" as="geometry">
            <mxRectangle width="180" height="26" as="alternateBounds" />
          </mxGeometry>
        </mxCell>
        <mxCell id="3KAAwCh_GaVrQStL4ofY-67" style="edgeStyle=elbowEdgeStyle;curved=1;sketch=1;orthogonalLoop=1;jettySize=auto;elbow=vertical;html=1;exitX=0.5;exitY=1;exitDx=0;exitDy=0;entryX=0.003;entryY=0.838;entryDx=0;entryDy=0;shadow=1;dashed=1;strokeColor=#000000;strokeWidth=1;fontFamily=Helvetica;fontSize=12;fontColor=#4C0099;startArrow=halfCircle;startFill=0;endArrow=block;endFill=1;entryPerimeter=0;" edge="1" parent="1" source="3KAAwCh_GaVrQStL4ofY-54" target="3KAAwCh_GaVrQStL4ofY-65">
          <mxGeometry relative="1" as="geometry">
            <Array as="points">
              <mxPoint x="670" y="618" />
            </Array>
          </mxGeometry>
        </mxCell>
        <mxCell id="3KAAwCh_GaVrQStL4ofY-68" value="&lt;i&gt;&lt;b&gt;Callback function for handling incoming HTTP requests&lt;/b&gt;&lt;/i&gt;" style="text;whiteSpace=wrap;html=1;fontSize=12;fontFamily=Helvetica;align=center;fillColor=default;strokeColor=#36393d;sketch=1;glass=0;rounded=1;fillStyle=cross-hatch;" vertex="1" parent="1">
          <mxGeometry x="672.85" y="443" width="330" height="25" as="geometry" />
        </mxCell>
        <mxCell id="3KAAwCh_GaVrQStL4ofY-69" style="edgeStyle=elbowEdgeStyle;curved=1;sketch=1;orthogonalLoop=1;jettySize=auto;elbow=vertical;html=1;exitX=1;exitY=0.5;exitDx=0;exitDy=0;entryX=0.75;entryY=1;entryDx=0;entryDy=0;shadow=1;dashed=1;strokeColor=#000000;strokeWidth=1;fontFamily=Helvetica;fontSize=12;fontColor=#4C0099;startArrow=halfCircle;startFill=0;endArrow=block;endFill=1;" edge="1" parent="1" source="3KAAwCh_GaVrQStL4ofY-61" target="3KAAwCh_GaVrQStL4ofY-68">
          <mxGeometry relative="1" as="geometry">
            <Array as="points">
              <mxPoint x="920" y="524" />
            </Array>
          </mxGeometry>
        </mxCell>
        <mxCell id="3KAAwCh_GaVrQStL4ofY-70" style="edgeStyle=orthogonalEdgeStyle;curved=1;sketch=1;orthogonalLoop=1;jettySize=auto;html=1;exitX=1;exitY=0.5;exitDx=0;exitDy=0;entryX=0;entryY=0;entryDx=0;entryDy=0;shadow=1;dashed=1;startArrow=halfCircle;startFill=0;" edge="1" parent="1" source="3KAAwCh_GaVrQStL4ofY-16" target="3KAAwCh_GaVrQStL4ofY-39">
          <mxGeometry relative="1" as="geometry" />
        </mxCell>
        <mxCell id="3KAAwCh_GaVrQStL4ofY-71" style="edgeStyle=orthogonalEdgeStyle;curved=1;sketch=1;orthogonalLoop=1;jettySize=auto;html=1;exitX=1;exitY=0.5;exitDx=0;exitDy=0;entryX=0;entryY=0;entryDx=0;entryDy=0;shadow=1;dashed=1;startArrow=halfCircle;startFill=0;" edge="1" parent="1" source="3KAAwCh_GaVrQStL4ofY-10" target="3KAAwCh_GaVrQStL4ofY-26">
          <mxGeometry relative="1" as="geometry">
            <Array as="points">
              <mxPoint x="460" y="235" />
              <mxPoint x="460" y="176" />
            </Array>
          </mxGeometry>
        </mxCell>
        <mxCell id="3KAAwCh_GaVrQStL4ofY-72" value="http_adapter_t" style="shape=table;startSize=30;container=1;collapsible=0;childLayout=tableLayout;rounded=1;sketch=1;fillColor=#e1d5e7;strokeColor=#9673a6;align=left;fontStyle=3;fontSize=14;swimlaneFillColor=#FFFF99;" vertex="1" parent="1">
          <mxGeometry x="720" y="280" width="317.15" height="150" as="geometry" />
        </mxCell>
        <mxCell id="3KAAwCh_GaVrQStL4ofY-73" value="" style="shape=tableRow;horizontal=0;startSize=0;swimlaneHead=0;swimlaneBody=0;top=0;left=0;bottom=0;right=0;collapsible=0;dropTarget=0;fillColor=none;points=[[0,0.5],[1,0.5]];portConstraint=eastwest;rounded=1;sketch=1;" vertex="1" parent="3KAAwCh_GaVrQStL4ofY-72">
          <mxGeometry y="30" width="317.15" height="24" as="geometry" />
        </mxCell>
        <mxCell id="3KAAwCh_GaVrQStL4ofY-74" value="evl_t*&amp;nbsp; &amp;nbsp; &amp;nbsp; &amp;nbsp; &amp;nbsp; &amp;nbsp; &amp;nbsp; &amp;nbsp; &amp;nbsp; &amp;nbsp; &amp;nbsp; &amp;nbsp; &amp;nbsp; &amp;nbsp; &amp;nbsp;&lt;b&gt;&lt;i&gt; &lt;span style=&quot;white-space: pre;&quot;&gt;	&lt;/span&gt;&lt;span style=&quot;white-space: pre;&quot;&gt;	&lt;/span&gt;&lt;span style=&quot;white-space: pre;&quot;&gt;	&lt;/span&gt;&amp;nbsp; &amp;nbsp; &amp;nbsp; evl&lt;/i&gt;&lt;/b&gt;" style="shape=partialRectangle;html=1;whiteSpace=wrap;connectable=0;overflow=hidden;fillColor=none;top=0;left=0;bottom=0;right=0;pointerEvents=1;rounded=1;sketch=1;align=left;" vertex="1" parent="3KAAwCh_GaVrQStL4ofY-73">
          <mxGeometry width="317" height="24" as="geometry">
            <mxRectangle width="317" height="24" as="alternateBounds" />
          </mxGeometry>
        </mxCell>
        <mxCell id="3KAAwCh_GaVrQStL4ofY-75" value="" style="shape=tableRow;horizontal=0;startSize=0;swimlaneHead=0;swimlaneBody=0;top=0;left=0;bottom=0;right=0;collapsible=0;dropTarget=0;fillColor=none;points=[[0,0.5],[1,0.5]];portConstraint=eastwest;rounded=1;sketch=1;" vertex="1" parent="3KAAwCh_GaVrQStL4ofY-72">
          <mxGeometry y="54" width="317.15" height="24" as="geometry" />
        </mxCell>
        <mxCell id="3KAAwCh_GaVrQStL4ofY-76" value="http_adapter_resolver_t*&amp;nbsp; &amp;nbsp; &amp;nbsp; &amp;nbsp; &amp;nbsp; &amp;nbsp;&lt;b&gt;&lt;i&gt; &lt;span style=&quot;white-space: pre;&quot;&gt;	&lt;/span&gt;&amp;nbsp; &amp;nbsp; &amp;nbsp; resolver&lt;/i&gt;&lt;/b&gt;" style="shape=partialRectangle;html=1;whiteSpace=wrap;connectable=0;overflow=hidden;fillColor=none;top=0;left=0;bottom=0;right=0;pointerEvents=1;rounded=1;sketch=1;align=left;" vertex="1" parent="3KAAwCh_GaVrQStL4ofY-75">
          <mxGeometry width="317" height="24" as="geometry">
            <mxRectangle width="317" height="24" as="alternateBounds" />
          </mxGeometry>
        </mxCell>
        <mxCell id="3KAAwCh_GaVrQStL4ofY-77" value="" style="shape=tableRow;horizontal=0;startSize=0;swimlaneHead=0;swimlaneBody=0;top=0;left=0;bottom=0;right=0;collapsible=0;dropTarget=0;fillColor=none;points=[[0,0.5],[1,0.5]];portConstraint=eastwest;rounded=1;sketch=1;" vertex="1" parent="3KAAwCh_GaVrQStL4ofY-72">
          <mxGeometry y="78" width="317.15" height="24" as="geometry" />
        </mxCell>
        <mxCell id="3KAAwCh_GaVrQStL4ofY-78" value="http_adapter_connection_pool_mgr_t* &lt;b&gt;&lt;i&gt;http_pool_mgr&lt;/i&gt;&lt;/b&gt;" style="shape=partialRectangle;html=1;whiteSpace=wrap;connectable=0;overflow=hidden;fillColor=none;top=0;left=0;bottom=0;right=0;pointerEvents=1;rounded=1;sketch=1;align=left;" vertex="1" parent="3KAAwCh_GaVrQStL4ofY-77">
          <mxGeometry width="317" height="24" as="geometry">
            <mxRectangle width="317" height="24" as="alternateBounds" />
          </mxGeometry>
        </mxCell>
        <mxCell id="3KAAwCh_GaVrQStL4ofY-79" value="" style="shape=tableRow;horizontal=0;startSize=0;swimlaneHead=0;swimlaneBody=0;top=0;left=0;bottom=0;right=0;collapsible=0;dropTarget=0;fillColor=none;points=[[0,0.5],[1,0.5]];portConstraint=eastwest;rounded=1;sketch=1;" vertex="1" parent="3KAAwCh_GaVrQStL4ofY-72">
          <mxGeometry y="102" width="317.15" height="24" as="geometry" />
        </mxCell>
        <mxCell id="3KAAwCh_GaVrQStL4ofY-80" value="http_adapter_connection_pool_mgr_t* &lt;b&gt;&lt;i&gt;http_pool_mgr_v2&lt;/i&gt;&lt;/b&gt;" style="shape=partialRectangle;html=1;whiteSpace=wrap;connectable=0;overflow=hidden;fillColor=none;top=0;left=0;bottom=0;right=0;pointerEvents=1;rounded=1;sketch=1;align=left;" vertex="1" parent="3KAAwCh_GaVrQStL4ofY-79">
          <mxGeometry width="317" height="24" as="geometry">
            <mxRectangle width="317" height="24" as="alternateBounds" />
          </mxGeometry>
        </mxCell>
        <mxCell id="3KAAwCh_GaVrQStL4ofY-81" value="" style="shape=tableRow;horizontal=0;startSize=0;swimlaneHead=0;swimlaneBody=0;top=0;left=0;bottom=0;right=0;collapsible=0;dropTarget=0;fillColor=none;points=[[0,0.5],[1,0.5]];portConstraint=eastwest;rounded=1;sketch=1;" vertex="1" parent="3KAAwCh_GaVrQStL4ofY-72">
          <mxGeometry y="126" width="317.15" height="24" as="geometry" />
        </mxCell>
        <mxCell id="3KAAwCh_GaVrQStL4ofY-82" value="uint32_t&amp;nbsp; &amp;nbsp; &amp;nbsp; &amp;nbsp; &amp;nbsp; &amp;nbsp; &amp;nbsp; &amp;nbsp; &amp;nbsp; &amp;nbsp; &amp;nbsp; &amp;nbsp; &amp;nbsp; &amp;nbsp;&lt;b&gt;&lt;i&gt; connection_retire_timeout_sec&lt;/i&gt;&lt;/b&gt;" style="shape=partialRectangle;html=1;whiteSpace=wrap;connectable=0;overflow=hidden;fillColor=none;top=0;left=0;bottom=0;right=0;pointerEvents=1;rounded=1;sketch=1;align=left;" vertex="1" parent="3KAAwCh_GaVrQStL4ofY-81">
          <mxGeometry width="317" height="24" as="geometry">
            <mxRectangle width="317" height="24" as="alternateBounds" />
          </mxGeometry>
        </mxCell>
        <mxCell id="3KAAwCh_GaVrQStL4ofY-83" style="edgeStyle=orthogonalEdgeStyle;curved=1;sketch=1;orthogonalLoop=1;jettySize=auto;html=1;exitX=1;exitY=0.5;exitDx=0;exitDy=0;entryX=0;entryY=0;entryDx=0;entryDy=0;shadow=1;dashed=1;strokeWidth=1;fontSize=16;startArrow=halfCircle;startFill=0;" edge="1" parent="1" source="3KAAwCh_GaVrQStL4ofY-31" target="3KAAwCh_GaVrQStL4ofY-72">
          <mxGeometry relative="1" as="geometry" />
        </mxCell>
      </root>
    </mxGraphModel>
  </diagram>
</mxfile>
